<svg xmlns="http://www.w3.org/2000/svg" version="1.1" xmlns:xlink="http://www.w3.org/1999/xlink" width="200" height="200"><svg xmlns="http://www.w3.org/2000/svg" version="1.1" xmlns:xlink="http://www.w3.org/1999/xlink" viewBox="0 0 200 200"><rect width="200" height="200" fill="url('#gradient')"></rect><defs><linearGradient id="SvgjsLinearGradient1001" gradientTransform="rotate(77 0.5 0.5)"><stop offset="0%" stop-color="#31a0fd"></stop><stop offset="100%" stop-color="#d9e241"></stop></linearGradient></defs><g><g fill="#000000" transform="matrix(8.13415710503089,0,0,8.13415710503089,1.2883274711977606,157.83323296928236)" stroke="#17b059" stroke-width="0.2"><path d="M10.03-8.30L10.03-5.66L4.50-5.66L4.50 0L1.07 0L1.07-14.22L10.59-14.22L10.59-11.57L4.50-11.57L4.50-8.30L10.03-8.30ZM17.63-4.82L15.44-4.82L15.44 0L12.01 0L12.01-14.22L17.69-14.22Q19.32-14.22 20.57-13.62Q21.83-13.02 22.51-11.91Q23.20-10.80 23.20-9.39L23.20-9.39Q23.20-7.31 21.71-6.07Q20.22-4.82 17.63-4.82L17.63-4.82ZM15.44-11.57L15.44-7.47L17.69-7.47Q18.68-7.47 19.20-7.97Q19.73-8.47 19.73-9.38L19.73-9.38Q19.73-10.37 19.19-10.97Q18.65-11.56 17.72-11.57L17.72-11.57L15.44-11.57Z"></path></g></g></svg><style>@media (prefers-color-scheme: light) { :root { filter: none; } }
@media (prefers-color-scheme: dark) { :root { filter: none; } }
</style></svg>